<svg width="40" height="40"><path d="M31.9,10.7v-.5a3.1,3.1,0,0,0-3.1-3.1H24.7V5.7a4.7,4.7,0,0,0-9.4,0V7.1H11.2a3.1,3.1,0,0,0-3.1,3.1v.5C6,13.5,2.5,19.7,2.5,30a1.5,1.5,0,0,0,.4,1.1l1,1.1a9,9,0,0,0,.7,2.2,6,6,0,0,0,3.9,3A3.1,3.1,0,0,0,11.1,39H28.9a3.1,3.1,0,0,0,2.6-1.6,5.7,5.7,0,0,0,3.9-3,9,9,0,0,0,.7-2.2l1-1.1a1.5,1.5,0,0,0,.4-1.1C37.5,19.7,34,13.5,31.9,10.7Zm-14-5a2.1,2.1,0,0,1,4.2,0V7.1H17.9ZM20,11.3a2.4,2.4,0,0,1,2.4,2.4,2.4,2.4,0,0,1-4.8,0A2.4,2.4,0,0,1,20,11.3ZM33.8,33.7a4.1,4.1,0,0,1-1.9,1.8v-7a5.4,5.4,0,0,1-3,1v.4a1.8,1.8,0,0,1-1.8,1.7H23.8A1.8,1.8,0,0,1,22,29.9v-.4H17.9v.4a1.8,1.8,0,0,1-1.8,1.7H12.8A1.8,1.8,0,0,1,11,29.9v-.4a5.3,5.3,0,0,1-2.9-1v7a4.1,4.1,0,0,1-1.9-1.8A5.8,5.8,0,0,1,5.6,32l.9-1.2a2,2,0,0,0,.3-1.1,33.7,33.7,0,0,1,1.3-9.4v3.8A3.1,3.1,0,0,0,11,27.2v-.6a1.8,1.8,0,0,1,1.8-1.8v-6a1.6,1.6,0,0,1,1.7-1.6,1.6,1.6,0,0,1,1.6,1.6v6a1.8,1.8,0,0,1,1.8,1.8v.6H22v-.6a1.8,1.8,0,0,1,1.8-1.8v-6a1.6,1.6,0,0,1,1.7-1.6,1.6,1.6,0,0,1,1.6,1.6v6a1.8,1.8,0,0,1,1.8,1.8v.6a3.2,3.2,0,0,0,3-3.1V20.3a33.7,33.7,0,0,1,1.3,9.4,2,2,0,0,0,.3,1.1l.9,1.2A5.8,5.8,0,0,1,33.8,33.7Z"></path><path d="M27.1,26H23.8a.6.6,0,0,0-.6.6v3.3a.6.6,0,0,0,.6.6h3.3a.6.6,0,0,0,.6-.6V26.6A.6.6,0,0,0,27.1,26Zm-.5,3.3H24.4V27.1h2.2Z"></path><path d="M16.1,26H12.8a.6.6,0,0,0-.6.6v3.3a.6.6,0,0,0,.6.6h3.3a.6.6,0,0,0,.6-.6V26.6A.6.6,0,0,0,16.1,26Zm-.5,3.3H13.4V27.1h2.2Z"></path></svg>
